<svg width="179" height="67" viewBox="0 0 179 67" fill="none" xmlns="http://www.w3.org/2000/svg">
<path d="M1.04916 51.0598C0.349713 51.0598 -1.16159e-05 50.8033 -1.16159e-05 50.2904C-1.16159e-05 49.8708 0.303083 49.591 0.909272 49.4511L2.518 49.1713C4.10342 48.8915 4.89613 47.9822 4.89613 46.4435V5.31587C4.89613 4.33664 4.73292 3.68382 4.40652 3.35741C4.12674 3.031 3.49723 2.77454 2.518 2.58802L0.909272 2.30824C0.303083 2.16835 -1.16159e-05 1.88857 -1.16159e-05 1.4689C-1.16159e-05 0.95597 0.349713 0.699506 1.04916 0.699506H15.178C18.8152 0.699506 21.9627 1.77199 24.6206 3.91697C27.2785 6.01532 29.3302 8.97632 30.7757 12.8C32.2213 16.6236 32.944 21.0535 32.944 26.0895C32.944 31.1722 32.1746 35.5787 30.6358 39.3091C29.1437 43.0395 27.022 45.9305 24.2709 47.9822C21.5197 50.034 18.2556 51.0598 14.4786 51.0598H1.04916ZM14.7584 49.2412C18.9084 49.2412 22.0559 47.2595 24.2009 43.2959C26.3925 39.3324 27.4883 33.5969 27.4883 26.0895C27.4883 18.6287 26.4392 12.8466 24.3408 8.74317C22.2891 4.59311 19.2348 2.51807 15.178 2.51807C11.6342 2.51807 9.86222 4.22007 9.86222 7.62405V44.1353C9.86222 46.0005 10.2353 47.3294 10.9813 48.1221C11.774 48.8682 13.033 49.2412 14.7584 49.2412ZM43.6778 51.6893C42.5121 51.6893 41.393 51.4329 40.3205 50.9199C39.248 50.407 38.362 49.591 37.6626 48.4719C36.9631 47.3527 36.6134 45.8606 36.6134 43.9954V19.6546C36.6134 18.8152 36.4735 18.2324 36.1937 17.9059C35.9606 17.5795 35.5176 17.393 34.8648 17.3464L33.6757 17.2065C32.883 17.1132 32.4866 16.8101 32.4866 16.2972C32.4866 15.691 32.9296 15.3879 33.8156 15.3879H40.3205C41.0199 15.3879 41.3696 15.7377 41.3696 16.4371V42.5265C41.3696 44.6715 41.766 46.2103 42.5587 47.1429C43.398 48.0289 44.5405 48.4719 45.986 48.4719C47.4315 48.4719 48.7139 48.0755 49.833 47.2828C50.9521 46.4435 51.8381 45.3476 52.4909 43.9954C53.1903 42.5965 53.5401 41.081 53.5401 39.449V19.6546C53.5401 18.8152 53.4002 18.2324 53.1204 17.9059C52.8872 17.5795 52.4443 17.393 51.7914 17.3464L50.6024 17.2065C49.8097 17.1132 49.4133 16.8101 49.4133 16.2972C49.4133 15.691 49.8563 15.3879 50.7423 15.3879H57.2471C57.9466 15.3879 58.2963 15.7377 58.2963 16.4371V43.5757C58.2963 44.4151 58.4129 44.9979 58.646 45.3243C58.9258 45.6041 59.3921 45.7906 60.0449 45.8839L61.5138 46.0937C62.12 46.1404 62.4231 46.3735 62.4231 46.7932C62.4231 47.2128 62.05 47.4926 61.3039 47.6325C59.8584 47.819 58.6927 48.1921 57.8067 48.7516C56.9674 49.3112 56.2213 49.9873 55.5685 50.78C55.1488 51.1997 54.7991 51.4095 54.5193 51.4095C54.0996 51.4095 53.8898 51.1298 53.8898 50.5702V47.3527C53.8898 46.9797 53.7499 46.7699 53.4701 46.7232C53.237 46.63 52.9805 46.7232 52.7007 47.003C50.9754 48.7283 49.4366 49.9407 48.0844 50.6401C46.7787 51.3396 45.3099 51.6893 43.6778 51.6893ZM74.1809 51.6893C71.8028 51.6893 69.6578 50.8966 67.746 49.3112C65.8808 47.6791 64.3886 45.4642 63.2695 42.6664C62.1504 39.8686 61.5908 36.7444 61.5908 33.2938C61.5908 29.8432 62.1504 26.7423 63.2695 23.9911C64.3886 21.24 65.9041 19.0484 67.8159 17.4163C69.7277 15.7843 71.8494 14.9683 74.1809 14.9683C76.559 14.9683 78.6807 15.7843 80.5459 17.4163C82.4577 19.0484 83.9732 21.24 85.0923 23.9911C86.2114 26.7423 86.771 29.8432 86.771 33.2938C86.771 36.7444 86.2114 39.8686 85.0923 42.6664C84.0198 45.4642 82.5277 47.6791 80.6158 49.3112C78.704 50.8966 76.559 51.6893 74.1809 51.6893ZM74.1809 49.9407C79.0304 49.9407 81.4552 44.3917 81.4552 33.2938C81.4552 22.2425 79.0304 16.7169 74.1809 16.7169C69.3314 16.7169 66.9066 22.2425 66.9066 33.2938C66.9066 44.3917 69.3314 49.9407 74.1809 49.9407ZM97.9064 51.6893C96.9738 51.6893 95.9246 51.5961 94.7589 51.4095C93.6398 51.223 92.5673 50.9899 91.5414 50.7101C90.5622 50.4303 89.7928 50.1272 89.2332 49.8008C88.9068 49.6143 88.6504 49.4278 88.4639 49.2412C88.324 49.0081 88.254 48.6351 88.254 48.1221L87.9043 37.1408C87.9043 36.2082 88.2074 35.7419 88.8136 35.7419C89.3265 35.7419 89.6762 36.1616 89.8627 37.0009L90.4923 39.6588C92.0777 46.3269 95.0387 49.6609 99.3753 49.6609C101.707 49.6609 103.549 48.8915 104.901 47.3527C106.3 45.7673 106.999 43.5524 106.999 40.708C106.999 37.9568 106.276 35.3922 104.831 33.014C103.432 30.6359 101.171 28.2811 98.0463 25.9496C94.5957 23.4782 92.0777 21.1001 90.4923 18.8152C88.9068 16.4837 88.1141 14.0123 88.1141 11.4011C88.1141 7.95046 89.3032 5.19929 91.6813 3.14757C94.1061 1.04923 97.1836 5.80226e-05 100.914 5.80226e-05C102.313 5.80226e-05 103.665 0.163262 104.971 0.48967C106.276 0.816081 107.349 1.28238 108.188 1.88857C108.468 2.07509 108.678 2.28492 108.818 2.51807C109.004 2.75122 109.098 3.05432 109.098 3.42735L109.307 13.989C109.307 14.7817 109.004 15.1781 108.398 15.1781C107.978 15.1781 107.675 14.8517 107.489 14.1989L106.999 12.4502C105.973 8.85974 104.901 6.24847 103.782 4.61642C102.709 2.93774 101.147 2.0984 99.0955 2.0984C97.0904 2.0984 95.4817 2.75122 94.2693 4.05686C93.1035 5.3625 92.5207 7.20438 92.5207 9.5825C92.5207 11.5876 93.1735 13.4994 94.4791 15.318C95.7847 17.1366 98.0696 19.3515 101.334 21.9627C104.831 24.8072 107.372 27.5583 108.958 30.2162C110.59 32.8275 111.406 35.6253 111.406 38.6096C111.406 41.2209 110.823 43.5058 109.657 45.4642C108.491 47.4227 106.883 48.9615 104.831 50.0806C102.826 51.1531 100.518 51.6893 97.9064 51.6893ZM117.996 8.74317C117.017 8.74317 116.178 8.39344 115.478 7.69399C114.826 6.99454 114.499 6.10857 114.499 5.03609C114.499 3.9636 114.826 3.10094 115.478 2.44813C116.178 1.74868 117.017 1.39895 117.996 1.39895C118.976 1.39895 119.792 1.74868 120.445 2.44813C121.097 3.10094 121.424 3.9636 121.424 5.03609C121.424 6.10857 121.097 6.99454 120.445 7.69399C119.792 8.39344 118.976 8.74317 117.996 8.74317ZM112.121 51.0598C111.422 51.0598 111.072 50.8033 111.072 50.2904C111.072 49.8708 111.375 49.591 111.981 49.4511L112.821 49.3112C113.986 49.1247 114.732 48.8449 115.059 48.4719C115.385 48.0522 115.548 47.3527 115.548 46.3735V22.872C115.548 22.0327 115.408 21.4731 115.129 21.1934C114.896 20.8669 114.453 20.6571 113.8 20.5638L112.331 20.354C111.725 20.3074 111.422 20.0509 111.422 19.5846C111.422 19.2116 111.795 18.9551 112.541 18.8152C113.986 18.5821 115.152 18.209 116.038 17.6961C116.924 17.1832 117.787 16.5537 118.626 15.8076C119.046 15.3879 119.395 15.1781 119.675 15.1781C120.095 15.1781 120.305 15.4579 120.305 16.0174V46.3735C120.305 47.3527 120.445 48.0522 120.724 48.4719C121.004 48.8915 121.54 49.148 122.333 49.2412L124.082 49.4511C124.595 49.5443 124.851 49.8008 124.851 50.2205C124.851 50.78 124.501 51.0598 123.802 51.0598H112.121ZM134.549 66.098C131.005 66.098 128.208 65.3752 126.156 63.9297C124.104 62.5308 123.078 60.8288 123.078 58.8237C123.078 57.9844 123.195 57.215 123.428 56.5155C123.661 55.8627 124.151 55.0933 124.897 54.2073C125.69 53.3214 126.879 52.1789 128.464 50.78C129.024 50.2671 129.303 49.8008 129.303 49.3811C129.303 48.9148 129.024 48.5651 128.464 48.332C126.785 47.6325 125.783 46.7465 125.456 45.6741C125.13 44.5549 125.526 43.5291 126.646 42.5965L131.682 38.2599C132.241 37.7936 132.218 37.3972 131.612 37.0708C129.7 36.1382 128.184 34.6927 127.065 32.7343C125.946 30.7758 125.387 28.6775 125.387 26.4392C125.387 24.2942 125.853 22.3591 126.785 20.6338C127.718 18.9085 128.977 17.5329 130.562 16.507C132.148 15.4812 133.92 14.9683 135.878 14.9683C136.997 14.9683 138.07 15.1548 139.096 15.5278C139.749 15.761 140.145 15.5511 140.285 14.8983C140.704 13.1264 141.474 11.7508 142.593 10.7716C143.759 9.74571 144.901 9.23278 146.02 9.23278C147.093 9.23278 147.955 9.55919 148.608 10.212C149.308 10.8182 149.657 11.5876 149.657 12.5202C149.657 13.3129 149.424 13.9424 148.958 14.4087C148.492 14.875 147.909 15.1082 147.209 15.1082C146.603 15.1082 146.16 14.9916 145.88 14.7584C145.601 14.5253 145.344 14.2921 145.111 14.059C144.878 13.8258 144.505 13.7093 143.992 13.7093C142.873 13.7093 142.173 14.3154 141.894 15.5278C141.754 15.9941 141.754 16.3905 141.894 16.7169C142.08 17.0433 142.337 17.3697 142.663 17.6961C143.782 18.7686 144.645 20.0742 145.251 21.613C145.904 23.1518 146.23 24.8538 146.23 26.719C146.23 28.9572 145.764 30.9623 144.831 32.7343C143.945 34.5062 142.71 35.9051 141.124 36.931C139.585 37.9568 137.837 38.4697 135.878 38.4697C135.039 38.4697 134.316 38.6563 133.71 39.0293C133.104 39.3557 132.498 39.8453 131.891 40.4981L130.702 41.8271C130.096 42.5732 129.91 43.2959 130.143 43.9954C130.423 44.6482 131.075 44.9746 132.101 44.9746H138.117C141.474 44.9746 144.132 45.8139 146.09 47.4926C148.049 49.1247 149.028 51.3862 149.028 54.2773C149.028 56.5621 148.375 58.5905 147.069 60.3625C145.764 62.1344 144.015 63.5333 141.824 64.5592C139.679 65.585 137.254 66.098 134.549 66.098ZM135.808 36.7211C137.487 36.7211 138.816 35.8118 139.795 33.9933C140.774 32.1747 141.264 29.7033 141.264 26.5791C141.264 23.5482 140.751 21.1234 139.725 19.3048C138.746 17.4396 137.44 16.507 135.808 16.507C134.176 16.507 132.847 17.4396 131.821 19.3048C130.842 21.1234 130.353 23.5482 130.353 26.5791C130.353 29.7033 130.842 32.1747 131.821 33.9933C132.801 35.8118 134.13 36.7211 135.808 36.7211ZM135.389 64.5592C137.067 64.5592 138.606 64.1861 140.005 63.4401C141.404 62.694 142.5 61.6448 143.292 60.2925C144.132 58.9869 144.551 57.4947 144.551 55.8161C144.551 53.7177 143.922 52.109 142.663 50.9899C141.451 49.8241 139.725 49.2412 137.487 49.2412H135.878C134.433 49.2412 133.337 49.3811 132.591 49.6609C131.891 49.9407 131.215 50.4303 130.562 51.1298C129.117 52.6685 128.208 53.9042 127.835 54.8368C127.462 55.7694 127.275 56.7253 127.275 57.7046C127.275 59.7563 127.975 61.4117 129.373 62.6707C130.819 63.9297 132.824 64.5592 135.389 64.5592ZM148.842 51.0598C148.143 51.0598 147.793 50.8033 147.793 50.2904C147.793 49.8708 148.096 49.591 148.702 49.4511L149.542 49.3112C150.521 49.1247 151.15 48.8449 151.43 48.4719C151.756 48.0522 151.92 47.3527 151.92 46.3735V22.872C151.92 22.0327 151.78 21.4731 151.5 21.1934C151.267 20.8669 150.824 20.6571 150.171 20.5638L148.702 20.354C148.096 20.3074 147.793 20.0509 147.793 19.5846C147.793 19.2116 148.166 18.9551 148.912 18.8152C150.358 18.5821 151.453 18.209 152.199 17.6961C152.992 17.1832 153.808 16.5537 154.648 15.8076C155.067 15.3879 155.417 15.1781 155.697 15.1781C156.116 15.1781 156.326 15.4579 156.326 16.0174V19.165C156.326 19.5846 156.466 19.8644 156.746 20.0043C157.072 20.0975 157.422 19.9577 157.795 19.5846C159.66 17.8127 161.292 16.6003 162.691 15.9475C164.137 15.2947 165.652 14.9683 167.238 14.9683C169.336 14.9683 171.015 15.7143 172.274 17.2065C173.533 18.652 174.162 20.797 174.162 23.6414V46.3735C174.162 47.3527 174.302 48.0522 174.582 48.4719C174.908 48.8449 175.561 49.1014 176.54 49.2412L178.079 49.4511C178.592 49.5443 178.848 49.8241 178.848 50.2904C178.848 50.8033 178.569 51.0598 178.009 51.0598H166.258C165.606 51.0598 165.279 50.8033 165.279 50.2904C165.279 49.8241 165.536 49.5443 166.049 49.4511L167.028 49.3112C168.007 49.1713 168.637 48.8915 168.916 48.4719C169.243 48.0522 169.406 47.3527 169.406 46.3735V24.4108C169.406 22.126 168.986 20.5172 168.147 19.5846C167.308 18.652 166.119 18.1857 164.58 18.1857C163.088 18.1857 161.735 18.6287 160.523 19.5147C159.357 20.354 158.425 21.4964 157.725 22.942C157.026 24.3409 156.676 25.903 156.676 27.6283V46.3735C156.676 47.3527 156.816 48.0522 157.096 48.4719C157.422 48.8915 158.075 49.148 159.054 49.2412L160.943 49.4511C161.456 49.5443 161.712 49.8008 161.712 50.2205C161.712 50.78 161.362 51.0598 160.663 51.0598H148.842Z" fill="black"/>
</svg>
